
	.db 0, 0, D3|en, 0, 0, D3|en, 20, 0, A3|en, 20, 0, A3|en, 40, 0, D4|en, 40
	.db 0, D4|en, 60, 0, A3|en, 60, 0, A3|en, 80, 0, D3|en, 80, 0, D3|en, 100, 0
	.db A3|en, 100, 0, A3|en, 120, 0, D4|en, 120, 0, D4|en, 140, 0, A3|en, 140, 0, A3|en
	.db 160, 0, D3|en, 160, 0, D3|en, 180, 0, A3|en, 180, 0, A3|en, 200, 0, D4|en, 200
	.db 0, D4|en, 220, 0, A3|en, 220, 0, A3|en, 240, 0, D3|en, 240, 0, D3|en, 4, 1
	.db A3|en, 4, 1, A3|en, 24, 1, D4|en, 24, 1, D4|en, 44, 1, A3|en, 44, 1, A3|en
	.db 64, 1, D4|en, 64, 1, D3|en, 64, 1, D4|en, 64, 1, D3|en, 84, 1, A4|en, 84
	.db 1, A3|en, 84, 1, A4|en, 84, 1, A3|en, 104, 1, D5|en, 104, 1, D4|en, 104, 1
	.db D5|en, 104, 1, D4|en, 124, 1, A4|en, 124, 1, A3|en, 124, 1, A4|en, 124, 1, A3|en
	.db 144, 1, D4|en, 144, 1, D3|en, 144, 1, D4|en, 144, 1, D3|en, 164, 1, A4|en, 164
	.db 1, A3|en, 164, 1, A4|en, 164, 1, A3|en, 184, 1, D5|en, 184, 1, D4|en, 184, 1
	.db D5|en, 184, 1, D4|en, 204, 1, A4|en, 204, 1, A3|en, 204, 1, A4|en, 204, 1, A3|en
	.db 224, 1, D4|en, 224, 1, D3|en, 224, 1, D4|en, 224, 1, D3|en, 244, 1, A4|en, 244
	.db 1, A3|en, 244, 1, A4|en, 244, 1, A3|en, 8, 2, D5|en, 8, 2, D4|en, 8, 2
	.db D5|en, 8, 2, D4|en, 28, 2, A4|en, 28, 2, A3|en, 28, 2, A4|en, 28, 2, A3|en
	.db 48, 2, D4|en, 48, 2, D3|en, 48, 2, D4|en, 48, 2, D3|en, 68, 2, A4|en, 68
	.db 2, A3|en, 68, 2, A4|en, 68, 2, A3|en, 88, 2, D5|en, 88, 2, D4|en, 88, 2
	.db D5|en, 88, 2, D4|en, 108, 2, A4|en, 108, 2, A3|en, 108, 2, A4|en, 108, 2, A3|en
	.db 128, 2, D5|en, 128, 2, D4|en, 128, 2, D3|en, 128, 2, D5|en, 128, 2, D4|en, 128
	.db 2, D3|en, 148, 2, A5|en, 148, 2, A4|en, 148, 2, A3|en, 148, 2, A5|en, 148, 2
	.db A4|en, 148, 2, A3|en, 168, 2, D6|en, 168, 2, D5|en, 168, 2, D4|en, 168, 2, D6|en
	.db 168, 2, D5|en, 168, 2, D4|en, 188, 2, A5|en, 188, 2, A4|en, 188, 2, A3|en, 188
	.db 2, A5|en, 188, 2, A4|en, 188, 2, A3|en, 208, 2, D5|en, 208, 2, D4|en, 208, 2
	.db D3|en, 208, 2, D5|en, 208, 2, D4|en, 208, 2, D3|en, 228, 2, A5|en, 228, 2, A4|en
	.db 228, 2, A3|en, 228, 2, A5|en, 228, 2, A4|en, 228, 2, A3|en, 248, 2, D6|en, 248
	.db 2, D5|en, 248, 2, D4|en, 248, 2, D6|en, 248, 2, D5|en, 248, 2, D4|en, 12, 3
	.db A5|en, 12, 3, A4|en, 12, 3, A3|en, 12, 3, A5|en, 12, 3, A4|en, 12, 3, A3|en
	.db 32, 3, D5|en, 32, 3, D4|en, 32, 3, D3|en, 32, 3, D5|en, 32, 3, D4|en, 32
	.db 3, D3|en, 52, 3, A5|en, 52, 3, A4|en, 52, 3, A3|en, 52, 3, A5|en, 52, 3
	.db A4|en, 52, 3, A3|en, 72, 3, D6|en, 72, 3, D5|en, 72, 3, D4|en, 72, 3, D6|en
	.db 72, 3, D5|en, 72, 3, D4|en, 92, 3, A5|en, 92, 3, A4|en, 92, 3, A3|en, 92
	.db 3, A5|en, 92, 3, A4|en, 92, 3, A3|en, 112, 3, D5|en, 112, 3, D4|en, 112, 3
	.db D3|en, 112, 3, D5|en, 112, 3, D4|en, 112, 3, D3|en, 132, 3, A5|en, 132, 3, A4|en
	.db 132, 3, A3|en, 132, 3, A5|en, 132, 3, A4|en, 132, 3, A3|en, 152, 3, D6|en, 152
	.db 3, D5|en, 152, 3, D4|en, 152, 3, D6|en, 152, 3, D5|en, 152, 3, D4|en, 172, 3
	.db A5|en, 172, 3, A4|en, 172, 3, A3|en, 172, 3, A5|en, 172, 3, A4|en, 172, 3, A3|en
	.db 192, 3, Ais4|en, 192, 3, Ais3|en, 192, 3, Ais4|en, 192, 3, Ais3|en, 232, 3, D5|en, 232
	.db 3, D4|en, 232, 3, D5|en, 232, 3, D4|en, 252, 3, F5|en, 252, 3, F4|en, 252, 3
	.db F5|en, 252, 3, F4|en, 16, 4, C5|en, 16, 4, C5|en, 16, 4, C5|en, 16, 4, C5|en
	.db 36, 4, Ais4|en, 36, 4, Ais4|en, 36, 4, Ais4|en, 36, 4, Ais4|en, 56, 4, D5|en, 56
	.db 4, D5|en, 56, 4, D5|en, 56, 4, D5|en, 76, 4, F4|en, 76, 4, F4|en, 76, 4
	.db F4|en, 76, 4, F4|en, 96, 4, C5|en, 96, 4, C4|en, 96, 4, C5|en, 96, 4, C4|en
	.db 136, 4, E5|en, 136, 4, E4|en, 136, 4, E5|en, 136, 4, E4|en, 156, 4, G5|en, 156
	.db 4, G4|en, 156, 4, G5|en, 156, 4, G4|en, 176, 4, D5|en, 176, 4, D5|en, 176, 4
	.db D5|en, 176, 4, D5|en, 196, 4, E5|en, 196, 4, E5|en, 196, 4, E5|en, 196, 4, E5|en
	.db 216, 4, G5|en, 216, 4, G5|en, 216, 4, G5|en, 216, 4, G5|en, 236, 4, D6|en, 236
	.db 4, D6|en, 236, 4, D6|en, 236, 4, D6|en, 48, 42, EoS|en, 0
;747
